<svg width="45" height="46" viewBox="0 0 45 46" fill="none" xmlns="http://www.w3.org/2000/svg">
<path d="M22.5 1.95877C17.0877 1.90366 11.8751 4.00389 8.00762 7.79788C4.14016 11.5919 1.93436 16.7692 1.875 22.192C1.89585 26.4775 3.27177 30.6462 5.80512 34.0992C8.33847 37.5522 11.8989 40.1119 15.975 41.4107C17.0062 41.5985 17.3812 40.9786 17.3812 40.4338C17.3812 39.889 17.3812 38.6866 17.3812 36.9958C11.6438 38.2169 10.425 34.2905 10.425 34.2905C10.0431 33.058 9.23106 32.0043 8.1375 31.3223C6.2625 30.0823 8.2875 30.1011 8.2875 30.1011C8.9356 30.1879 9.55566 30.4206 10.1012 30.7818C10.6467 31.1429 11.1036 31.6232 11.4375 32.1864C12.0194 33.1974 12.9741 33.939 14.0963 34.2517C15.2184 34.5644 16.4182 34.4232 17.4375 33.8585C17.5423 32.8297 18.0073 31.8713 18.75 31.1532C14.175 30.6459 9.375 28.9176 9.375 21.1587C9.33409 19.1348 10.0805 17.1743 11.4562 15.6918C10.8297 13.9542 10.9037 12.0403 11.6625 10.3564C11.6625 10.3564 13.4062 9.81158 17.2875 12.4229C20.6661 11.5209 24.2214 11.5209 27.6 12.4229C31.5375 9.81158 33.225 10.3564 33.225 10.3564C33.9838 12.0403 34.0578 13.9542 33.4312 15.6918C34.839 17.1471 35.6258 19.0944 35.625 21.1211C35.625 28.8988 30.7875 30.6084 26.25 31.1156C26.7468 31.5989 27.1306 32.1865 27.3738 32.8362C27.6169 33.4859 27.7134 34.1815 27.6562 34.8729V40.415C27.6562 40.415 28.0312 41.5985 29.0625 41.3919C33.127 40.0851 36.6755 37.5248 39.201 34.0766C41.7265 30.6285 43.0999 26.4689 43.125 22.192C43.0656 16.7692 40.8598 11.5919 36.9924 7.79788C33.1249 4.00389 27.9123 1.90366 22.5 1.95877Z" fill="#231F20"/>
</svg>
