<svg width="69" height="69" viewBox="0 0 69 69" fill="none" xmlns="http://www.w3.org/2000/svg">
<path d="M34.5077 16.8055C24.7176 16.8055 16.8209 24.7022 16.8209 34.4923C16.8209 44.2824 24.7176 52.1791 34.5077 52.1791C44.2978 52.1791 52.1945 44.2824 52.1945 34.4923C52.1945 24.7022 44.2978 16.8055 34.5077 16.8055ZM34.5077 45.991C28.1811 45.991 23.009 40.8343 23.009 34.4923C23.009 28.1503 28.1657 22.9936 34.5077 22.9936C40.8497 22.9936 46.0064 28.1503 46.0064 34.4923C46.0064 40.8343 40.8343 45.991 34.5077 45.991ZM57.0433 16.082C57.0433 18.3756 55.1962 20.2074 52.918 20.2074C50.6244 20.2074 48.7926 18.3602 48.7926 16.082C48.7926 13.8038 50.6398 11.9567 52.918 11.9567C55.1962 11.9567 57.0433 13.8038 57.0433 16.082ZM68.7576 20.269C68.4959 14.7428 67.2336 9.8478 63.1852 5.81478C59.1522 1.78176 54.2572 0.51952 48.731 0.242443C43.0355 -0.0808143 25.9645 -0.0808143 20.269 0.242443C14.7582 0.504127 9.86319 1.76637 5.81478 5.79939C1.76637 9.8324 0.51952 14.7274 0.242443 20.2536C-0.0808143 25.9491 -0.0808143 43.0201 0.242443 48.7156C0.504127 54.2418 1.76637 59.1368 5.81478 63.1698C9.86319 67.2028 14.7428 68.4651 20.269 68.7422C25.9645 69.0654 43.0355 69.0654 48.731 68.7422C54.2572 68.4805 59.1522 67.2182 63.1852 63.1698C67.2182 59.1368 68.4805 54.2418 68.7576 48.7156C69.0808 43.0201 69.0808 25.9645 68.7576 20.269ZM61.3996 54.8267C60.1989 57.8438 57.8746 60.1682 54.8421 61.3842C50.3011 63.1852 39.5259 62.7696 34.5077 62.7696C29.4895 62.7696 18.6989 63.1698 14.1733 61.3842C11.1562 60.1835 8.83185 57.8592 7.61578 54.8267C5.81478 50.2857 6.2304 39.5105 6.2304 34.4923C6.2304 29.4741 5.83017 18.6835 7.61578 14.1579C8.81645 11.1408 11.1408 8.81645 14.1733 7.60039C18.7143 5.79939 29.4895 6.215 34.5077 6.215C39.5259 6.215 50.3165 5.81478 54.8421 7.60039C57.8592 8.80106 60.1835 11.1254 61.3996 14.1579C63.2006 18.6989 62.785 29.4741 62.785 34.4923C62.785 39.5105 63.2006 50.3011 61.3996 54.8267Z" fill="black"/>
</svg>
