<svg width="91" height="91" viewBox="0 0 91 91" fill="none" xmlns="http://www.w3.org/2000/svg">
<path d="M3.95565 90.7338C3.44324 90.7391 2.93483 90.6431 2.45968 90.4512C1.98453 90.2593 1.55202 89.9754 1.18703 89.6157C0.768556 89.2023 0.446569 88.7017 0.24408 88.1494C0.0415912 87.5972 -0.0363981 87.007 0.0156874 86.4211L1.66621 65.9759C1.73699 65.0265 2.15379 64.1361 2.83755 63.4735L61.7239 4.58715C65.005 1.51459 69.3703 -0.131976 73.8633 0.00827887C78.327 0.0429131 82.6101 1.77521 85.8429 4.85336C88.9435 8.03729 90.7268 12.2751 90.8354 16.7181C90.944 21.161 89.3699 25.4809 86.4286 28.8126L27.4889 87.9652C26.8292 88.6224 25.9655 89.0355 25.0397 89.1365L4.32834 91L3.95565 90.7338ZM9.27991 68.0524L8.16182 82.6409L22.7503 81.3098L80.7848 23.1688C81.9163 21.8297 82.6396 20.1938 82.8688 18.4557C83.098 16.7175 82.8235 14.9501 82.0778 13.3634C81.3321 11.7767 80.1466 10.4374 78.6621 9.50457C77.1777 8.57177 75.4567 8.08468 73.7035 8.10116C72.5513 8.028 71.3961 8.18836 70.3074 8.57263C69.2186 8.95689 68.2187 9.55714 67.3677 10.3374L9.27991 68.0524Z" fill="black"/>
</svg>
