<svg width="69" height="69" viewBox="0 0 69 69" fill="none" xmlns="http://www.w3.org/2000/svg">
<path d="M63.8892 0H5.09354C2.28179 0 0 2.22812 0 4.97183V64.0215C0 66.769 2.28179 69 5.09354 69H63.8892C66.7029 69 69 66.769 69 64.0215V4.97183C69 2.22812 66.7029 0 63.8892 0ZM20.4643 58.7976H10.2254V25.8702H20.4643V58.7976ZM15.3448 21.368C12.0645 21.368 9.41275 18.7095 9.41275 15.432C9.41275 12.1593 12.0645 9.50092 15.3448 9.50092C18.6175 9.50092 21.276 12.1593 21.276 15.432C21.276 18.7095 18.6175 21.368 15.3448 21.368ZM58.7937 58.7976H48.5712V42.7857C48.5712 38.9658 48.4965 34.0544 43.2515 34.0544C37.9251 34.0544 37.1134 38.2145 37.1134 42.5088V58.7985H26.8832V25.8702H36.7013V30.3667H36.8412C38.2078 27.7792 41.5466 25.0489 46.5261 25.0489C56.8819 25.0489 58.7947 31.8665 58.7947 40.7359L58.7937 58.7976Z" fill="black"/>
</svg>
