<svg width="69" height="52" viewBox="0 0 69 52" fill="none" xmlns="http://www.w3.org/2000/svg">
<path d="M69 4.31296V47.438C69 49.8817 67.1312 51.7505 64.6875 51.7505H60.375V12.6131L34.5 31.1942L8.625 12.6131V51.7505H4.3125C1.86588 51.7505 0 49.8817 0 47.438V4.31296C0 3.09108 0.46575 2.01296 1.23913 1.24246C1.64273 0.840992 2.12255 0.524297 2.65035 0.311003C3.17816 0.0977088 3.74329 -0.00787682 4.3125 0.000457617H5.75L34.5 20.8442L63.25 0.000457617H64.6875C65.9094 0.000457617 66.9875 0.466207 67.7609 1.24246C68.5371 2.01296 69 3.09108 69 4.31296Z" fill="black"/>
</svg>
