<svg width="130" height="91" viewBox="0 0 130 91" fill="none" xmlns="http://www.w3.org/2000/svg">
<path d="M117 0H13C9.55528 0.010066 6.25453 1.38294 3.81873 3.81873C1.38294 6.25453 0.010066 9.55528 0 13V78C0.0101342 81.4447 1.38303 84.7454 3.81881 87.1812C6.25459 89.617 9.5553 90.9899 13 91H117C120.445 90.9899 123.745 89.617 126.181 87.1812C128.617 84.7454 129.99 81.4447 130 78V13C129.99 9.55528 128.617 6.25453 126.181 3.81873C123.745 1.38294 120.445 0.010066 117 0ZM26 78L16.8499 68.8201L40.105 45.5L16.8602 22.1902L26 13L58.5 45.5L26 78ZM110.5 78H65V65H110.5V78Z" fill="black"/>
</svg>
