<svg width="69" height="70" viewBox="0 0 69 70" fill="none" xmlns="http://www.w3.org/2000/svg">
<path d="M48.2049 40.7889C45.0324 40.7889 43.9856 43.2019 43.6672 44.3223H52.1369C52.0576 43.7002 51.809 42.6069 51.0175 41.8097C50.3432 41.1334 49.3998 40.7889 48.2049 40.7889Z" fill="#231F20"/>
<path d="M26.4328 45.2956C26.4298 45.2956 26.4298 45.2956 26.4298 45.2956H18.41V52.1331H25.9945C27.3471 52.0992 29.0228 51.6638 29.0228 48.8222C29.0228 45.3943 26.6979 45.2956 26.4328 45.2956Z" fill="#231F20"/>
<path d="M62.5921 0H6.47564C3.42697 0 0.849487 2.01535 0 4.78538V64.8755C0.716936 67.2159 2.66747 69.0165 5.09402 69.5196H63.9727C66.3316 69.031 68.2357 67.3126 69 65.067V4.59381C68.0915 1.92344 65.5692 0 62.5921 0ZM41.532 29.3886C41.532 29.1206 41.7506 28.9029 42.0177 28.9029H54.0779C54.343 28.9029 54.5626 29.1206 54.5626 29.3886V32.9887C54.5626 33.2567 54.342 33.4735 54.0779 33.4735H42.0177C41.7506 33.4735 41.532 33.2567 41.532 32.9887V29.3886ZM36.4099 49.3573C36.4099 53.9531 33.9785 56.1697 31.9351 57.2136C29.7088 58.3543 27.4013 58.4433 26.7453 58.4433H11.4361C11.171 58.4433 10.9504 58.2237 10.9504 57.9567V28.7326C10.9504 28.4646 11.171 28.2459 11.4361 28.2459H26.6466C32.0454 28.2459 35.3998 31.4136 35.3998 36.5154C35.3998 39.6753 33.8605 41.1914 32.5059 41.9132C33.2654 42.1812 33.9282 42.6088 34.4807 43.199C36.6034 45.4437 36.4215 49.1977 36.4099 49.3573ZM58.9571 48.9171C58.9281 49.159 58.721 49.3399 58.4762 49.3399H43.8347C43.9401 50.945 44.5758 52.1032 45.7243 52.7872C46.7402 53.39 47.8635 53.4557 48.295 53.4557C48.385 53.4557 48.4411 53.4519 48.4478 53.4499C50.1284 53.4499 51.3214 53.0794 52.0248 52.3479C52.6991 51.6455 52.6808 50.8512 52.6759 50.8173C52.6759 50.6838 52.7204 50.5551 52.8153 50.4584C52.9052 50.3635 53.031 50.3084 53.1655 50.3084H58.306C58.5749 50.3084 58.7936 50.5261 58.7936 50.7951C58.7936 58.662 50.3926 59.0606 48.7033 59.0606C48.4333 59.0606 48.2795 59.0509 48.2795 59.0509C48.2795 59.0509 48.2776 59.0509 48.2747 59.0509C44.482 59.0509 41.5146 57.9451 39.4789 55.7662C36.289 52.347 36.5802 47.5635 36.5947 47.3623C36.5947 47.2762 36.6082 44.4413 38.0411 41.5649C39.387 38.8819 42.2518 35.6813 48.3085 35.6813C51.779 35.6813 54.4813 36.7476 56.3264 38.849C59.7214 42.7201 58.9958 48.6655 58.9571 48.9171Z" fill="#231F20"/>
<path d="M28.0079 36.823C28.0079 34.2987 26.4937 34.2697 26.4308 34.2697H25.3327H18.41V39.8175H25.9006C27.0142 39.8175 28.0079 39.5892 28.0079 36.823Z" fill="#231F20"/>
</svg>
